<svg width="64" height="63" viewBox="0 0 64 63" fill="none" xmlns="http://www.w3.org/2000/svg">
<g filter="url(#filter0_d_79_4467)">
<g clip-path="url(#clip0_79_4467)">
<rect x="8" y="4" width="48" height="48" rx="14.4" fill="#F2F4F7"/>
<g clip-path="url(#clip1_79_4467)">
<path opacity="0.2" d="M40.2433 25.4425C40.1613 23.4828 39.3148 21.6332 37.8854 20.2901C36.4559 18.9471 34.5571 18.2175 32.5961 18.2577C30.6351 18.2979 28.7679 19.1047 27.3946 20.5053C26.0214 21.9058 25.2515 23.7886 25.2499 25.75L23.0608 29.9565C22.9854 30.1323 22.9799 30.3303 23.0456 30.51C23.1113 30.6897 23.2432 30.8375 23.4143 30.9231L25.9999 32.1072V35.5C25.9999 35.6989 26.0789 35.8897 26.2196 36.0303C26.3602 36.171 26.551 36.25 26.7499 36.25H31.2499C31.2499 36.6478 31.4079 37.0293 31.6892 37.3106C31.9705 37.592 32.3521 37.75 32.7499 37.75H37.9999L37.2499 31.75C38.2238 31.0209 39.0053 30.0656 39.5269 28.9665C40.0485 27.8675 40.2944 26.6579 40.2433 25.4425ZM30.5121 22.945C30.4715 22.6343 30.5291 22.3187 30.677 22.0425C30.8249 21.7663 31.0555 21.5433 31.3366 21.4049C31.6176 21.2664 31.935 21.2195 32.2441 21.2706C32.5532 21.3217 32.8385 21.4683 33.0601 21.6898C33.2816 21.9113 33.4282 22.1967 33.4793 22.5058C33.5304 22.8149 33.4835 23.1323 33.345 23.4133C33.2066 23.6944 32.9836 23.925 32.7074 24.0729C32.4311 24.2208 32.1156 24.2784 31.8049 24.2378C31.4771 24.1949 31.1726 24.0449 30.9388 23.8111C30.705 23.5773 30.555 23.2728 30.5121 22.945ZM33.6996 30.2378C33.3889 30.2784 33.0733 30.2208 32.7971 30.0729C32.5209 29.925 32.2979 29.6944 32.1595 29.4133C32.021 29.1323 31.9741 28.8149 32.0252 28.5058C32.0763 28.1967 32.2229 27.9113 32.4444 27.6898C32.6659 27.4683 32.9513 27.3217 33.2604 27.2706C33.5695 27.2194 33.8869 27.2664 34.1679 27.4049C34.449 27.5433 34.6796 27.7663 34.8275 28.0425C34.9754 28.3187 35.033 28.6343 34.9924 28.945C34.9493 29.2735 34.7986 29.5785 34.5639 29.8124C34.3292 30.0463 34.0236 30.1959 33.6949 30.2378H33.6996Z" fill="#203FAE"/>
<path d="M32 24.25C32.8284 24.25 33.5 23.5784 33.5 22.75C33.5 21.9216 32.8284 21.25 32 21.25C31.1716 21.25 30.5 21.9216 30.5 22.75C30.5 23.5784 31.1716 24.25 32 24.25Z" stroke="#203FAE" stroke-width="1.5" stroke-linecap="round" stroke-linejoin="round"/>
<path d="M33.5 30.25C34.3284 30.25 35 29.5784 35 28.75C35 27.9216 34.3284 27.25 33.5 27.25C32.6716 27.25 32 27.9216 32 28.75C32 29.5784 32.6716 30.25 33.5 30.25Z" stroke="#203FAE" stroke-width="1.5" stroke-linecap="round" stroke-linejoin="round"/>
<path opacity="0.1" d="M31.2508 36.25H26.7508C26.5519 36.25 26.3611 36.171 26.2205 36.0303C26.0798 35.8897 26.0008 35.6989 26.0008 35.5V32.1072L23.4152 30.9231C23.2443 30.8375 23.1126 30.6899 23.0469 30.5104C22.9812 30.331 22.9865 30.1332 23.0617 29.9575L25.2508 25.75C25.2508 24.4716 25.5776 23.2144 26.2001 22.0978C26.8227 20.9812 27.7203 20.0422 28.8078 19.3701C29.8953 18.698 31.1365 18.315 32.4137 18.2576C33.6908 18.2001 34.9614 18.4701 36.1049 19.0418C37.2483 19.6135 38.2267 20.4681 38.947 21.5242C39.6673 22.5804 40.1057 23.8032 40.2205 25.0765C40.3353 26.3497 40.1227 27.6312 39.603 28.7992C39.0832 29.9672 38.2735 30.9829 37.2508 31.75L38.0008 37.75" stroke="#203FAE" stroke-width="1.5" stroke-linecap="round" stroke-linejoin="round"/>
<path d="M32 21.2501V18.2866" stroke="#203FAE" stroke-width="1.5" stroke-linecap="round" stroke-linejoin="round"/>
<path d="M40.0978 24.25H37.2497L34.4597 27.5978" stroke="#203FAE" stroke-width="1.5" stroke-linecap="round" stroke-linejoin="round"/>
</g>
<rect x="9.2" y="5.2" width="45.6" height="45.6" rx="13.2" stroke="white" stroke-width="2.4"/>
</g>
</g>
<defs>
<filter id="filter0_d_79_4467" x="0.8" y="0.4" width="62.4" height="62.4" filterUnits="userSpaceOnUse" color-interpolation-filters="sRGB">
<feFlood flood-opacity="0" result="BackgroundImageFix"/>
<feColorMatrix in="SourceAlpha" type="matrix" values="0 0 0 0 0 0 0 0 0 0 0 0 0 0 0 0 0 0 127 0" result="hardAlpha"/>
<feOffset dy="3.6"/>
<feGaussianBlur stdDeviation="3.6"/>
<feComposite in2="hardAlpha" operator="out"/>
<feColorMatrix type="matrix" values="0 0 0 0 0.317647 0 0 0 0 0.372549 0 0 0 0 0.458824 0 0 0 0.16 0"/>
<feBlend mode="normal" in2="BackgroundImageFix" result="effect1_dropShadow_79_4467"/>
<feBlend mode="normal" in="SourceGraphic" in2="effect1_dropShadow_79_4467" result="shape"/>
</filter>
<clipPath id="clip0_79_4467">
<rect x="8" y="4" width="48" height="48" rx="14.4" fill="white"/>
</clipPath>
<clipPath id="clip1_79_4467">
<rect width="24" height="24" fill="white" transform="translate(20 16)"/>
</clipPath>
</defs>
</svg>
