<svg width="64" height="63" viewBox="0 0 64 63" fill="none" xmlns="http://www.w3.org/2000/svg">
<g filter="url(#filter0_d_79_4516)">
<g clip-path="url(#clip0_79_4516)">
<rect x="8" y="4" width="48" height="48" rx="14.4" fill="#F2F4F7"/>
<g clip-path="url(#clip1_79_4516)">
<path opacity="0.1" d="M30.5 34C34.6421 34 38 30.6421 38 26.5C38 22.3579 34.6421 19 30.5 19C26.3579 19 23 22.3579 23 26.5C23 30.6421 26.3579 34 30.5 34Z" fill="#203FAE"/>
<path d="M30.5 34C34.6421 34 38 30.6421 38 26.5C38 22.3579 34.6421 19 30.5 19C26.3579 19 23 22.3579 23 26.5C23 30.6421 26.3579 34 30.5 34Z" stroke="#203FAE" stroke-width="1.5" stroke-linecap="round" stroke-linejoin="round"/>
<path d="M35.804 31.8035L41.0005 37" stroke="#203FAE" stroke-width="1.5" stroke-linecap="round" stroke-linejoin="round"/>
</g>
<rect x="9.2" y="5.2" width="45.6" height="45.6" rx="13.2" stroke="white" stroke-width="2.4"/>
</g>
</g>
<defs>
<filter id="filter0_d_79_4516" x="0.8" y="0.4" width="62.4" height="62.4" filterUnits="userSpaceOnUse" color-interpolation-filters="sRGB">
<feFlood flood-opacity="0" result="BackgroundImageFix"/>
<feColorMatrix in="SourceAlpha" type="matrix" values="0 0 0 0 0 0 0 0 0 0 0 0 0 0 0 0 0 0 127 0" result="hardAlpha"/>
<feOffset dy="3.6"/>
<feGaussianBlur stdDeviation="3.6"/>
<feComposite in2="hardAlpha" operator="out"/>
<feColorMatrix type="matrix" values="0 0 0 0 0.317647 0 0 0 0 0.372549 0 0 0 0 0.458824 0 0 0 0.16 0"/>
<feBlend mode="normal" in2="BackgroundImageFix" result="effect1_dropShadow_79_4516"/>
<feBlend mode="normal" in="SourceGraphic" in2="effect1_dropShadow_79_4516" result="shape"/>
</filter>
<clipPath id="clip0_79_4516">
<rect x="8" y="4" width="48" height="48" rx="14.4" fill="white"/>
</clipPath>
<clipPath id="clip1_79_4516">
<rect width="24" height="24" fill="white" transform="translate(20 16)"/>
</clipPath>
</defs>
</svg>
