<svg width="16" height="11" viewBox="0 0 16 11" fill="none" xmlns="http://www.w3.org/2000/svg">
<g clip-path="url(#clip0_79_4585)">
<path d="M1.718 11L4.038 7.025C3.981 7.056 3.915 7.078 3.838 7.09C3.762 7.103 3.686 7.109 3.61 7.109C2.606 7.109 1.753 6.761 1.052 6.064C0.351 5.367 0 4.531 0 3.554C0 2.565 0.351 1.726 1.052 1.035C1.753 0.345 2.606 0 3.61 0C4.602 0 5.452 0.345 6.16 1.035C6.867 1.726 7.221 2.565 7.221 3.554C7.221 3.896 7.179 4.214 7.095 4.508C7.01 4.803 6.887 5.083 6.725 5.35L3.42 11H1.718ZM10.497 11L12.817 7.025C12.76 7.056 12.694 7.078 12.618 7.09C12.542 7.103 12.466 7.109 12.39 7.109C11.385 7.109 10.532 6.761 9.831 6.064C9.13 5.367 8.779 4.531 8.779 3.554C8.779 2.559 9.13 1.718 9.831 1.031C10.532 0.344 11.385 0 12.39 0C13.382 0 14.231 0.345 14.939 1.035C15.646 1.726 16 2.565 16 3.554C16 3.896 15.958 4.214 15.874 4.508C15.789 4.803 15.666 5.083 15.504 5.35L12.2 11H10.497Z" fill="#171717"/>
</g>
<defs>
<clipPath id="clip0_79_4585">
<rect width="16" height="11" fill="white"/>
</clipPath>
</defs>
</svg>
