<svg width="58" height="24" viewBox="0 0 58 24" fill="none" xmlns="http://www.w3.org/2000/svg">
<g clip-path="url(#clip0_79_4281)">
<mask id="mask0_79_4281" style="mask-type:luminance" maskUnits="userSpaceOnUse" x="0" y="0" width="58" height="24">
<path d="M0.790039 0.599976H57.79V23.4H0.790039V0.599976Z" fill="white"/>
</mask>
<g mask="url(#mask0_79_4281)">
<path d="M3.50898 3.01393C3.65718 2.31055 4.35828 1.73998 5.07249 1.73998H8.95533L5.72628 17.0291H1.84344C1.12866 17.0291 0.669245 16.4591 0.818015 15.7551L3.50898 3.01393ZM16.452 3.01393C16.6007 2.31055 17.3013 1.73998 18.0155 1.73998H21.8983L18.6693 17.0291H14.7864C14.0717 17.0291 13.6122 16.4591 13.761 15.7551L16.452 3.01393ZM42.3385 3.01393C42.4867 2.31055 43.1867 1.73998 43.902 1.73998H47.7849L44.5558 17.0291H40.673C39.9582 17.0291 39.4994 16.4591 39.6481 15.7551L42.3385 3.01393ZM23.1928 1.73998H27.0756C27.7904 1.73998 28.2498 2.30998 28.1016 3.01393L25.4101 15.7551C25.2619 16.4591 24.5614 17.0291 23.8466 17.0291H19.9637L23.1928 1.73998ZM49.0793 1.73998H52.9622C53.677 1.73998 54.1364 2.30998 53.9882 3.01393L51.2961 15.7551C51.1479 16.4591 50.4479 17.0291 49.7331 17.0291H45.8497L49.0793 1.73998ZM29.3955 3.01393C29.5437 2.31055 30.2437 1.73998 30.9585 1.73998H34.8419L31.6123 17.0291H27.7294C27.0146 17.0291 26.5552 16.4591 26.7046 15.7551L29.395 3.01393H29.3955ZM36.1358 1.73998H40.0192C40.734 1.73998 41.1934 2.30998 41.0441 3.01393L37.0085 22.126C36.858 22.8294 36.1586 23.4 35.4432 23.4H31.5598L36.1358 1.73998ZM8.09748 11.9327H13.2742L12.4671 15.7551C12.3189 16.4591 11.6178 17.0291 10.9036 17.0291H7.02018L8.09634 11.9333L8.09748 11.9327ZM26.1665 18.3036H31.3432L30.2671 23.4H26.3842C25.6689 23.4 25.21 22.83 25.3588 22.126L26.1665 18.3036ZM40.2193 19.4886L39.5638 22.5929C39.5353 22.7262 39.4908 22.7627 39.3551 22.7627H39.057C38.9214 22.7627 38.8917 22.7262 38.9202 22.5929L39.5757 19.4886C39.6042 19.3558 39.6487 19.3188 39.7844 19.3188H40.0825C40.2181 19.3188 40.2478 19.3558 40.2193 19.4886ZM41.0811 21.5828H41.0201C40.9551 21.5828 40.9323 21.6011 40.9192 21.6655L40.7231 22.5929C40.6946 22.7262 40.6496 22.7627 40.5145 22.7627H40.2158C40.0808 22.7627 40.0511 22.7262 40.079 22.5929L40.7345 19.4886C40.763 19.3558 40.8086 19.3188 40.9437 19.3188H41.5593C42.2684 19.3188 42.5369 19.5713 42.4058 20.1909L42.2963 20.7101C42.1652 21.3303 41.7902 21.5828 41.0811 21.5828ZM41.2612 20.0444L41.0902 20.8572C41.076 20.9216 41.0908 20.9399 41.1563 20.9399H41.2544C41.4824 20.9399 41.6049 20.8481 41.6545 20.6138L41.7229 20.2878C41.7725 20.0541 41.6893 19.9617 41.4607 19.9617H41.3627C41.2977 19.9617 41.2749 19.98 41.2612 20.0444ZM43.3919 20.5448L43.8764 21.0778C44.1306 21.3531 44.1659 21.5184 44.101 21.8262L44.0839 21.9089C43.9613 22.4874 43.6695 22.8089 42.9929 22.8089C42.3169 22.8089 42.1499 22.5381 42.306 21.7983L42.3254 21.7071C42.3539 21.5737 42.3995 21.5366 42.534 21.5366H42.851C42.9866 21.5366 43.0163 21.5737 42.9878 21.7065L42.945 21.9089C42.9062 22.0924 42.9655 22.1659 43.1285 22.1659C43.2921 22.1659 43.3811 22.0975 43.4164 21.9322L43.4346 21.8444C43.462 21.7156 43.4472 21.6518 43.307 21.5002L42.851 21.0088C42.5956 20.7381 42.5631 20.5813 42.6287 20.2735L42.6492 20.1732C42.7717 19.5947 43.0636 19.2726 43.7396 19.2726C44.4162 19.2726 44.5832 19.5439 44.427 20.2832L44.4076 20.375C44.3791 20.5084 44.3341 20.5448 44.199 20.5448H43.8821C43.747 20.5448 43.7174 20.5084 43.7453 20.375L43.788 20.1732C43.8268 19.9891 43.7681 19.9161 43.6045 19.9161C43.4415 19.9161 43.352 19.9845 43.3172 20.1498L43.3007 20.2279C43.2722 20.3613 43.2864 20.4257 43.3919 20.5448ZM46.1233 19.4886C46.1518 19.3558 46.1963 19.3188 46.3319 19.3188H46.6301C46.7657 19.3188 46.7954 19.3558 46.7669 19.4886L46.2789 21.7988C46.1228 22.5381 45.8417 22.8089 45.1651 22.8089C44.4891 22.8089 44.3221 22.5381 44.4783 21.7983L44.9662 19.4886C44.9947 19.3558 45.0403 19.3188 45.1748 19.3188H45.4735C45.6086 19.3188 45.6388 19.3558 45.6103 19.4886L45.099 21.9089C45.0603 22.0924 45.1241 22.1659 45.3014 22.1659C45.4735 22.1659 45.5733 22.0924 45.612 21.9089L46.1233 19.4886ZM48.0647 21.3577C48.0665 21.3947 48.0784 21.4033 48.1018 21.4033C48.1246 21.4033 48.1417 21.3947 48.1588 21.3577L48.9642 19.4385C49.0041 19.3416 49.0503 19.3188 49.1671 19.3188H49.6197C49.7548 19.3188 49.785 19.3558 49.7565 19.4886L49.101 22.5929C49.0725 22.7262 49.0269 22.7627 48.8918 22.7627H48.6775C48.5424 22.7627 48.5122 22.7262 48.5407 22.5929L48.8553 21.1052C48.8639 21.0641 48.8565 21.0544 48.8285 21.0544C48.8097 21.0544 48.7886 21.0641 48.7772 21.096L48.1263 22.6117C48.0796 22.7217 48.0197 22.7627 47.8846 22.7627H47.7581C47.6179 22.7627 47.5757 22.7217 47.5757 22.6117L47.5597 21.0955C47.5569 21.0635 47.5495 21.0544 47.5261 21.0544C47.4982 21.0544 47.4868 21.0641 47.4782 21.1052L47.1647 22.5929C47.1362 22.7262 47.0912 22.7627 46.9555 22.7627H46.7412C46.6055 22.7627 46.5759 22.7262 46.6044 22.5929L47.2599 19.4886C47.2884 19.3558 47.334 19.3188 47.4685 19.3188H47.8561C48.0191 19.3188 48.0716 19.3558 48.0704 19.5166L48.0647 21.3577ZM57.7901 1.73998C57.7901 2.36983 57.2828 2.87998 56.6575 2.87998C56.5083 2.87953 56.3606 2.84968 56.2229 2.79214C56.0852 2.7346 55.9602 2.65049 55.855 2.54463C55.7498 2.43876 55.6665 2.31321 55.6099 2.17514C55.5533 2.03708 55.5244 1.88921 55.5249 1.73998C55.5249 1.11013 56.0322 0.599976 56.6575 0.599976C57.2828 0.599976 57.7901 1.11013 57.7901 1.73998Z" fill="#101F56"/>
</g>
</g>
<defs>
<clipPath id="clip0_79_4281">
<rect width="57" height="22.8" fill="white" transform="translate(0.790039 0.599976)"/>
</clipPath>
</defs>
</svg>
