<svg width="94" height="63" viewBox="0 0 94 63" fill="none" xmlns="http://www.w3.org/2000/svg">
<g clip-path="url(#clip0_79_4663)">
<mask id="mask0_79_4663" style="mask-type:luminance" maskUnits="userSpaceOnUse" x="0" y="22" width="94" height="19">
<path d="M0 22.9546H94V40.0455H0V22.9546Z" fill="white"/>
</mask>
<g mask="url(#mask0_79_4663)">
<path d="M8.54551 40.0455C13.2647 40.0455 17.091 36.2197 17.091 31.5V25.5182C17.091 24.8383 16.8209 24.1862 16.3401 23.7055C15.8593 23.2247 15.2073 22.9546 14.5273 22.9546H8.97279V26.7035C8.97279 27.5589 9.02449 28.445 9.47312 29.1731C9.79432 29.6949 10.224 30.1415 10.733 30.4826C11.2419 30.8237 11.8183 31.0514 12.423 31.1501L12.5867 31.1766C12.6541 31.1997 12.7127 31.2432 12.7542 31.3012C12.7956 31.3592 12.8179 31.4287 12.8179 31.5C12.8179 31.5713 12.7956 31.6409 12.7542 31.6989C12.7127 31.7569 12.6541 31.8004 12.5867 31.8235L12.423 31.85C11.5395 31.9943 10.7236 32.4125 10.0906 33.0455C9.45755 33.6786 9.03935 34.4944 8.89502 35.378L8.86853 35.5416C8.84568 35.6093 8.80218 35.6681 8.74416 35.7097C8.68613 35.7514 8.61651 35.7738 8.54509 35.7738C8.47366 35.7738 8.40404 35.7514 8.34602 35.7097C8.28799 35.6681 8.24449 35.6093 8.22164 35.5416L8.19515 35.378C8.09639 34.7733 7.86874 34.1969 7.52763 33.6879C7.18652 33.1789 6.73993 32.7493 6.21816 32.4281C5.49052 31.9794 4.60392 31.9273 3.74852 31.9273H0.0098877C0.233351 36.4483 3.96942 40.0455 8.54551 40.0455Z" fill="#171717"/>
<path d="M0 31.0728H3.74889C4.60429 31.0728 5.49045 31.0206 6.21853 30.572C6.78766 30.2213 7.26675 29.7423 7.61742 29.1731C8.06605 28.445 8.11818 27.5589 8.11818 26.7035V22.9546H2.56364C1.88372 22.9546 1.23165 23.2247 0.750872 23.7055C0.270097 24.1862 0 24.8383 0 25.5182L0 31.0728ZM19.849 23.8091C19.849 24.0358 19.7589 24.2531 19.5987 24.4134C19.4384 24.5736 19.2211 24.6637 18.9944 24.6637C18.7678 24.6637 18.5504 24.5736 18.3902 24.4134C18.2299 24.2531 18.1399 24.0358 18.1399 23.8091C18.1399 23.5825 18.2299 23.3651 18.3902 23.2049C18.5504 23.0446 18.7678 22.9546 18.9944 22.9546C19.2211 22.9546 19.4384 23.0446 19.5987 23.2049C19.7589 23.3651 19.849 23.5825 19.849 23.8091ZM90.4583 28.1263C92.8472 28.1263 94 29.7948 94 31.7274V35.357H91.5V32.158C91.5 31.2821 91.1804 30.5592 90.2639 30.5592C89.3474 30.5592 89.0419 31.2821 89.0419 32.158V35.3566H86.542V32.158C86.542 31.2821 86.2365 30.5592 85.3195 30.5592C84.403 30.5592 84.0834 31.2821 84.0834 32.158V35.3566H81.5839V31.7269C81.5839 29.7944 82.7362 28.1259 85.1251 28.1259C86.4309 28.1259 87.3751 28.6403 87.8058 29.4884C88.2639 28.6403 89.2641 28.1254 90.4583 28.1254V28.1263ZM77.0915 33.1322C77.8969 33.1322 78.2443 32.3952 78.2443 31.5188V28.404H80.7439V31.8248C80.7439 33.8688 79.5496 35.5655 77.0915 35.5655C74.633 35.5655 73.4388 33.8693 73.4388 31.8248V28.404H75.9388V31.5188C75.9388 32.3948 76.2857 33.1322 77.0915 33.1322ZM69.763 35.5792C68.1936 35.5792 67.1797 35.037 66.5823 33.9804L68.388 32.9652C68.6379 33.41 69.0127 33.6326 69.6378 33.6326C70.1518 33.6326 70.3876 33.4518 70.3876 33.2292C70.3876 32.3811 66.7212 33.2433 66.7212 30.5459C66.7212 29.2385 67.8321 28.1818 69.7211 28.1818C71.3738 28.1818 72.2766 28.9881 72.6795 29.767L70.8739 30.7959C70.7213 30.3789 70.2488 30.1285 69.7766 30.1285C69.4156 30.1285 69.2212 30.2815 69.2212 30.49C69.2212 31.3522 72.8876 30.5596 72.8876 33.1737C72.8876 34.6337 71.4571 35.5792 69.763 35.5792ZM61.0286 38.5552H58.5287V31.8666C58.5287 29.7388 60.1258 28.1955 62.3481 28.1955C64.5148 28.1955 66.1675 29.8503 66.1675 31.8666C66.1675 34.0915 64.6951 35.5655 62.4869 35.5655C61.9729 35.5655 61.4593 35.4126 61.0286 35.1759V38.5552ZM62.3481 33.2155C63.1398 33.2155 63.6675 32.6037 63.6675 31.8803C63.6675 31.1437 63.1398 30.5455 62.3481 30.5455C61.5563 30.5455 61.0286 31.1437 61.0286 31.8807C61.0286 32.6037 61.5563 33.2155 62.3481 33.2155ZM56.0244 27.6674C55.2049 27.6674 54.5247 26.9859 54.5247 26.1655C54.5247 25.3452 55.2049 24.6637 56.0244 24.6637C56.8439 24.6637 57.5246 25.3452 57.5246 26.1655C57.5246 26.9859 56.8439 27.6674 56.0244 27.6674ZM54.7747 28.404H57.2746V35.357H54.7747V28.404ZM49.9781 35.5655C47.8114 35.5655 46.1587 33.897 46.1587 31.8666C46.1587 29.8503 47.8114 28.1818 49.9781 28.1818C52.1448 28.1818 53.7975 29.8503 53.7975 31.8666C53.7975 33.897 52.1448 35.5655 49.9781 35.5655ZM49.9781 33.2155C50.7698 33.2155 51.2975 32.6037 51.2975 31.8803C51.2975 31.1437 50.7698 30.5318 49.9781 30.5318C49.1864 30.5318 48.6587 31.1437 48.6587 31.8803C48.6587 32.6037 49.1864 33.2155 49.9781 33.2155ZM41.4382 38.7637C39.7163 38.7637 38.4661 37.9989 37.8273 36.6359L39.8966 35.5237C40.1188 35.9967 40.5354 36.4833 41.3963 36.4833C42.2996 36.4833 42.8965 35.9129 42.9661 34.9118C42.6328 35.2041 42.1047 35.4263 41.3134 35.4263C39.3826 35.4263 37.8269 33.9385 37.8269 31.8525C37.8269 29.8367 39.48 28.1955 41.6467 28.1955C43.8689 28.1955 45.4661 29.7393 45.4661 31.8666V34.62C45.4661 37.123 43.7297 38.7637 41.4382 38.7637ZM41.6048 33.0767C42.3547 33.0767 42.9242 32.5618 42.9242 31.797C42.9242 31.0463 42.3551 30.5455 41.6048 30.5455C40.8686 30.5455 40.2854 31.0463 40.2854 31.7974C40.2854 32.5622 40.8686 33.0763 41.6048 33.0763V33.0767ZM33.5866 35.5655C31.4199 35.5655 29.7668 33.897 29.7668 31.8666C29.7668 29.8503 31.4199 28.1818 33.5866 28.1818C35.7529 28.1818 37.406 29.8503 37.406 31.8666C37.406 33.897 35.7533 35.5655 33.5866 35.5655ZM33.5866 33.2155C34.3784 33.2155 34.906 32.6037 34.906 31.8803C34.906 31.1437 34.3784 30.5318 33.5866 30.5318C32.7949 30.5318 32.2672 31.1437 32.2672 31.8803C32.2672 32.6037 32.7949 33.2155 33.5866 33.2155ZM25.2146 25.9711V32.9929H29.3536V35.357H24.8673C23.2842 35.357 22.6455 34.5226 22.6455 33.2014V25.9711H25.2146Z" fill="#171717"/>
</g>
</g>
<defs>
<clipPath id="clip0_79_4663">
<rect width="94" height="17.0909" fill="white" transform="translate(0 22.9546)"/>
</clipPath>
</defs>
</svg>
