<svg width="94" height="63" viewBox="0 0 94 63" fill="none" xmlns="http://www.w3.org/2000/svg">
<mask id="mask0_79_4575" style="mask-type:luminance" maskUnits="userSpaceOnUse" x="0" y="21" width="94" height="21">
<path d="M0 21.1021H94V41.8985H0V21.1021Z" fill="white"/>
</mask>
<g mask="url(#mask0_79_4575)">
<path fill-rule="evenodd" clip-rule="evenodd" d="M8.0108 35.6596C7.30372 35.6596 6.62409 35.3851 6.12248 34.8984C5.87577 34.6599 5.67945 34.3743 5.54513 34.0585C5.41082 33.7427 5.34124 33.4032 5.34053 33.06V21.1021H0V33.06C0 37.3665 3.58697 40.8587 8.0108 40.8587H13.8862V35.6596H8.0108ZM24.0349 26.3012C23.4035 26.3012 22.7788 26.4226 22.1956 26.6572C21.6147 26.8909 21.0849 27.2356 20.6359 27.6721C20.1913 28.1037 19.837 28.6195 19.5936 29.1894C19.3525 29.7557 19.2282 30.3649 19.2282 30.9804C19.2282 31.5959 19.3525 32.205 19.5936 32.7714C19.8348 33.3387 20.1892 33.8544 20.6359 34.2887C21.0849 34.7251 21.6147 35.0698 22.1956 35.3035C22.7803 35.5389 23.4047 35.6598 24.0349 35.6596C25.3031 35.6621 26.5223 35.1704 27.4339 34.2887C27.8778 33.8594 28.2311 33.3454 28.4729 32.7772C28.7146 32.2089 28.8399 31.5979 28.8414 30.9804C28.8399 30.3628 28.7146 29.7518 28.4729 29.1836C28.2311 28.6153 27.8778 28.1013 27.4339 27.6721C26.5223 26.7904 25.3031 26.2986 24.0349 26.3012ZM13.887 30.9804C13.8862 25.525 18.4298 21.1021 24.0341 21.1021C29.6383 21.1021 34.1819 25.525 34.1819 30.9804C34.1819 36.4357 29.6383 40.8587 24.0341 40.8587C18.4298 40.8587 13.887 36.4357 13.887 30.9804ZM81.7168 26.3012C80.4486 26.2986 79.2293 26.7904 78.3178 27.6721C77.8737 28.1013 77.5202 28.6152 77.2783 29.1835C77.0364 29.7517 76.911 30.3628 76.9095 30.9804C76.911 31.598 77.0364 32.209 77.2783 32.7773C77.5202 33.3455 77.8737 33.8595 78.3178 34.2887C79.2291 35.1702 80.4481 35.6619 81.716 35.6596C82.9841 35.6621 84.2034 35.1704 85.1149 34.2887C85.5589 33.8594 85.9122 33.3454 86.154 32.7772C86.3958 32.2089 86.521 31.5979 86.5224 30.9804C86.521 30.3628 86.3958 29.7518 86.154 29.1836C85.9122 28.6153 85.5589 28.1013 85.1149 27.6721C84.2034 26.7904 82.985 26.2986 81.7168 26.3012ZM71.5689 30.9804C71.5681 25.525 76.1117 21.1021 81.716 21.1021C87.3202 21.1021 91.8638 25.525 91.8638 30.9804C91.8638 36.4357 87.3202 40.8587 81.716 40.8587C76.1117 40.8587 71.5681 36.4357 71.5681 30.9804H71.5689ZM45.3978 21.1021C39.7936 21.1021 35.25 25.525 35.25 30.9804C35.25 36.4357 39.7936 40.8587 45.3978 40.8587H60.3513C61.3743 40.8597 62.3918 40.7097 63.371 40.4136L66.2267 41.8985L69.3071 36.281C70.088 34.8572 70.498 33.2597 70.4992 31.6359V30.9804C70.5 25.525 65.9564 21.1021 60.3522 21.1021H45.3978ZM65.1586 30.9804C65.1572 30.3628 65.0319 29.7518 64.7902 29.1836C64.5484 28.6153 64.1951 28.1013 63.7511 27.6721C62.8396 26.7904 61.6203 26.2986 60.3522 26.3012H45.3978C44.7665 26.3012 44.1417 26.4226 43.5586 26.6572C42.9777 26.8909 42.4479 27.2356 41.9989 27.6721C41.5542 28.1037 41.1999 28.6195 40.9565 29.1894C40.7154 29.7557 40.5911 30.3649 40.5911 30.9804C40.5911 31.5959 40.7154 32.205 40.9565 32.7714C41.1978 33.3387 41.5522 33.8544 41.9989 34.2887C42.4479 34.7251 42.9777 35.0698 43.5586 35.3035C44.143 35.5388 44.7671 35.6597 45.397 35.6596H60.3522C61.6139 35.6623 62.8275 35.1756 63.7378 34.302C64.1816 33.8765 64.5359 33.3667 64.78 32.8024C65.0241 32.2382 65.1531 31.6309 65.1595 31.0161L65.1586 30.9804Z" fill="#171717"/>
<path d="M93.9991 22.4022C93.9991 22.7466 93.8585 23.0769 93.6081 23.3206C93.355 23.5657 93.0163 23.7023 92.664 23.7016C92.3096 23.7016 91.9702 23.5644 91.7198 23.3206C91.5966 23.2014 91.4985 23.0588 91.4314 22.901C91.3642 22.7433 91.3293 22.5737 91.3289 22.4022C91.3289 22.057 91.4694 21.7268 91.7198 21.483C91.973 21.238 92.3117 21.1013 92.664 21.1021C93.0184 21.1021 93.3578 21.2393 93.6081 21.483C93.8585 21.7268 93.9991 22.057 93.9991 22.4022Z" fill="#171717"/>
</g>
</svg>
