<svg width="74" height="18" viewBox="0 0 74 18" fill="none" xmlns="http://www.w3.org/2000/svg">
<g clip-path="url(#clip0_79_4268)">
<mask id="mask0_79_4268" style="mask-type:luminance" maskUnits="userSpaceOnUse" x="0" y="0" width="74" height="18">
<path d="M0.968628 0.321411H73.6115V17.6786H0.968628V0.321411Z" fill="white"/>
</mask>
<g mask="url(#mask0_79_4268)">
<path fill-rule="evenodd" clip-rule="evenodd" d="M5.2732 1.40653V17.6785H0.968628V1.40588L5.2732 1.40653ZM7.42613 1.40653H16.574C19.5453 1.40653 21.9547 3.8346 21.9547 6.83031C21.9547 9.82603 19.5453 12.2547 16.574 12.2547H11.7301V17.6785H7.42548V1.40588L7.42613 1.40653ZM11.7307 7.91481H16.574C16.7159 7.91431 16.8563 7.88585 16.9871 7.83107C17.118 7.77628 17.2368 7.69625 17.3368 7.59553C17.4367 7.49482 17.5158 7.3754 17.5696 7.2441C17.6233 7.1128 17.6507 6.97219 17.6501 6.83031C17.6508 6.68838 17.6235 6.5477 17.5698 6.41633C17.516 6.28495 17.4369 6.16546 17.337 6.06467C17.237 5.96389 17.1182 5.8838 16.9873 5.82898C16.8564 5.77415 16.7159 5.74567 16.574 5.74517H11.7301V7.91545L11.7307 7.91481ZM38.0968 1.40653V9.81381C38.0968 11.761 39.6628 13.3392 41.594 13.3392C43.5264 13.3392 45.0918 11.761 45.0918 9.81381V1.40588H49.397V9.81381C49.397 14.1576 45.9037 17.6785 41.5946 17.6785C37.2856 17.6785 33.7923 14.1576 33.7923 9.81381V1.40588L38.0968 1.40653Z" fill="#101F56"/>
<path fill-rule="evenodd" clip-rule="evenodd" d="M23.5682 8.99996C23.5682 4.80595 26.9413 1.40588 31.1019 1.40588H32.178V5.74517H31.1019C29.3186 5.74517 27.8735 7.20253 27.8735 8.99996V9.54253C27.8735 14.0361 24.2593 17.6785 19.8017 17.6785H19.2637V13.3392H19.8017C21.882 13.3392 23.5689 11.6395 23.5689 9.54253L23.5682 8.99996Z" fill="#101F56"/>
<path d="M73.6122 1.94848C73.613 2.16136 73.5719 2.37232 73.4912 2.56931C73.4105 2.76631 73.2918 2.94547 73.1418 3.09656C72.9919 3.24766 72.8136 3.36773 72.6172 3.44992C72.4208 3.5321 72.2102 3.5748 71.9973 3.57555C71.7846 3.57471 71.5741 3.53197 71.3779 3.44978C71.1816 3.36759 71.0035 3.24755 70.8537 3.09653C70.7039 2.9455 70.5852 2.76644 70.5046 2.56956C70.424 2.37269 70.3829 2.16187 70.3837 1.94913C70.3827 1.73628 70.4237 1.52531 70.5042 1.32829C70.5848 1.13127 70.7034 0.952059 70.8532 0.800895C71.0031 0.64973 71.1813 0.529578 71.3776 0.447306C71.5739 0.365033 71.7845 0.322253 71.9973 0.321411C72.2102 0.322169 72.4208 0.364861 72.6172 0.447048C72.8136 0.529235 72.9919 0.649305 73.1418 0.800402C73.2918 0.951498 73.4105 1.13066 73.4912 1.32765C73.5719 1.52464 73.613 1.7356 73.6122 1.94848ZM54.0192 17.6786L56.0731 9.0077L57.6005 14.2238C58.5108 17.3353 62.8829 17.3353 63.7938 14.2238L65.3206 9.0077L67.3745 17.6786H71.8006L68.5702 4.0442C67.8027 0.802268 63.2699 0.682054 62.3339 3.87898L60.6972 9.46991L59.0605 3.87898C58.1245 0.682054 53.5917 0.802268 52.8235 4.0442L49.5938 17.6786H54.0192Z" fill="#101F56"/>
</g>
</g>
<defs>
<clipPath id="clip0_79_4268">
<rect width="72.6429" height="18" fill="white" transform="translate(0.968628)"/>
</clipPath>
</defs>
</svg>
