<svg width="118" height="26" viewBox="0 0 118 26" fill="none" xmlns="http://www.w3.org/2000/svg">
<g clip-path="url(#clip0_79_4292)">
<mask id="mask0_79_4292" style="mask-type:luminance" maskUnits="userSpaceOnUse" x="0" y="0" width="118" height="26">
<path d="M0.352539 0.5H117.228V25.5H0.352539V0.5Z" fill="white"/>
</mask>
<g mask="url(#mask0_79_4292)">
<path fill-rule="evenodd" clip-rule="evenodd" d="M12.7713 3.35437L14.4182 0.5L19.0907 3.19812L17.4432 6.05188C17.1538 6.5525 17.5869 7.16125 18.1544 7.05188L21.3119 6.4425L22.3338 11.7406L19.1763 12.3494C14.0688 13.3344 10.17 7.85938 12.77 3.35437H12.7713ZM9.91629 22.6456L8.26816 25.5L3.59504 22.8025L5.24316 19.9481C5.53254 19.4475 5.09941 18.8388 4.53129 18.9481L1.37441 19.5569L0.352539 14.2594L3.51004 13.6506C8.61754 12.6656 12.5163 18.1406 9.91629 22.6456ZM10.0588 3.35437L8.41254 0.5L3.73816 3.19812L5.38629 6.05188C5.67504 6.5525 5.24254 7.16125 4.67441 7.05188L1.51691 6.4425L0.496289 11.7406L3.65316 12.3494C8.76191 13.3344 12.6613 7.85938 10.0594 3.35437H10.0588ZM12.6338 22.6456L14.2807 25.5L18.9538 22.8025L17.3057 19.9481C17.0169 19.4475 17.4494 18.8388 18.0182 18.9481L21.1744 19.5569L22.1963 14.2594L19.0388 13.6506C13.9313 12.6656 10.0325 18.1406 12.6325 22.6456H12.6338Z" fill="#101F56"/>
<path d="M102.299 19.3456V14.0331C102.299 13.2969 102.468 12.6363 102.807 12.0519C103.158 11.4556 103.654 10.9881 104.298 10.6488C104.941 10.31 105.706 10.1406 106.594 10.1406C107.009 10.1366 107.422 10.1896 107.822 10.2981C108.178 10.3846 108.52 10.5203 108.839 10.7013C109.154 10.865 109.423 11.0637 109.646 11.2975H109.681C109.919 11.06 110.191 10.86 110.487 10.7013C110.813 10.522 111.161 10.3864 111.522 10.2981C111.928 10.1904 112.347 10.1374 112.767 10.1406C113.655 10.1406 114.421 10.3094 115.064 10.6488C115.706 10.9881 116.203 11.455 116.554 12.0519C116.905 12.6363 117.08 13.2962 117.08 14.0331V19.3456H114.344V14.1206C114.344 13.8287 114.269 13.5656 114.117 13.3319C113.977 13.0874 113.778 12.8823 113.538 12.7356C113.285 12.5815 112.993 12.5024 112.696 12.5075C112.395 12.5039 112.098 12.5828 111.838 12.7356C111.597 12.882 111.398 13.0872 111.259 13.3319C111.117 13.5702 111.044 13.8433 111.048 14.1206V19.3456H108.331V14.1206C108.331 13.8287 108.254 13.5656 108.103 13.3319C107.96 13.0838 107.754 12.8781 107.506 12.7356C107.253 12.5815 106.961 12.5024 106.664 12.5075C106.363 12.5039 106.066 12.5828 105.806 12.7356C105.565 12.882 105.366 13.0872 105.227 13.3319C105.086 13.5704 105.013 13.8433 105.016 14.1206V19.3456H102.299ZM96.3544 19.5562C95.4313 19.5562 94.63 19.3813 93.9525 19.03C93.2863 18.6675 92.7719 18.1825 92.4094 17.575C92.0469 16.9556 91.8657 16.2713 91.8657 15.5231V10.3506H94.5838V15.4531C94.5838 15.7687 94.6594 16.0612 94.8113 16.33C94.9632 16.5869 95.1682 16.7975 95.425 16.9612C95.6938 17.1131 95.9982 17.1894 96.3369 17.1894C96.6644 17.1894 96.9563 17.1131 97.2138 16.9612C97.4825 16.7975 97.6932 16.5869 97.845 16.33C97.9969 16.0612 98.0732 15.7687 98.0732 15.4531V10.3506H100.791V15.5231C100.791 16.2713 100.615 16.9556 100.264 17.575C99.9138 18.1825 99.4057 18.6681 98.7394 19.03C98.0844 19.3806 97.2894 19.5562 96.3544 19.5562ZM83.1113 19.3456V17.1894H87.4425C87.5594 17.1894 87.6644 17.1656 87.7582 17.1187C87.8505 17.0614 87.9283 16.9836 87.9857 16.8912C88.0431 16.7992 88.0736 16.6929 88.0736 16.5844C88.0736 16.4759 88.0431 16.3695 87.9857 16.2775C87.931 16.1874 87.8522 16.1144 87.7582 16.0669C87.6634 16.0083 87.5539 15.9779 87.4425 15.9794H85.8644C85.2794 15.9794 84.7475 15.8856 84.2688 15.6988C83.8139 15.5104 83.4238 15.1935 83.1463 14.7869C82.8775 14.3662 82.7432 13.8225 82.7432 13.1562C82.7432 12.6419 82.8657 12.1744 83.1113 11.7538C83.3669 11.335 83.7219 10.985 84.1457 10.7362C84.5876 10.4797 85.0903 10.3465 85.6013 10.3506H89.9319V12.525H86.0219C85.8666 12.5219 85.7161 12.5785 85.6013 12.6831C85.5498 12.733 85.5092 12.7931 85.4819 12.8594C85.4547 12.9258 85.4415 12.997 85.4432 13.0688C85.4432 13.2325 85.4963 13.3725 85.6013 13.4894C85.7161 13.594 85.8666 13.6506 86.0219 13.6475H87.565C88.2194 13.6475 88.7807 13.7469 89.2482 13.945C89.7275 14.1325 90.0957 14.4362 90.3532 14.8575C90.6219 15.2781 90.7563 15.8212 90.7563 16.4875C90.7563 17.0138 90.6219 17.4931 90.3532 17.925C90.0982 18.3556 89.7354 18.7123 89.3007 18.96C88.8682 19.2175 88.3775 19.3456 87.8282 19.3456H83.1113ZM77.19 10.1406C77.95 10.1406 78.6219 10.2631 79.2063 10.5087C79.78 10.7275 80.2963 11.0756 80.7144 11.5256C81.1407 11.9666 81.4693 12.4923 81.6788 13.0688C81.9007 13.6531 82.0119 14.3019 82.0119 15.015C82.0119 15.9031 81.825 16.6925 81.4507 17.3819C81.1049 18.0426 80.5832 18.5948 79.9432 18.9775C79.3 19.3631 78.5519 19.5562 77.6988 19.5562C77.3363 19.5562 76.9913 19.5094 76.6638 19.4163C76.3536 19.3251 76.0584 19.1891 75.7875 19.0125C75.5321 18.8394 75.3119 18.6192 75.1388 18.3638H75.0857V23.1513H72.3682V15.0144C72.3682 14.0206 72.5669 13.1613 72.9644 12.4369C73.3497 11.7239 73.9347 11.1387 74.6475 10.7531C75.3725 10.3444 76.22 10.14 77.19 10.14V10.1406ZM77.19 12.49C76.7694 12.49 76.4013 12.595 76.0857 12.8056C75.7813 13.0044 75.5475 13.285 75.3838 13.6475C75.2207 13.9975 75.1388 14.3956 75.1388 14.8394C75.1388 15.2838 75.2207 15.6812 75.3838 16.0319C75.5375 16.3707 75.78 16.6616 76.0857 16.8737C76.4013 17.0725 76.7694 17.1719 77.19 17.1719C77.6107 17.1719 77.9732 17.0719 78.2769 16.8737C78.5825 16.6613 78.825 16.3706 78.9788 16.0319C79.1538 15.6812 79.2413 15.2838 79.2413 14.8394C79.2413 14.3956 79.1538 13.9981 78.9788 13.6475C78.815 13.285 78.5813 13.0037 78.2769 12.8056C77.9732 12.595 77.6107 12.49 77.19 12.49ZM68.2382 19.3456V10.3506H70.9738V19.3456H68.2382ZM69.6057 9.33375C69.1732 9.33375 68.7994 9.17625 68.4838 8.86062C68.1682 8.545 68.01 8.17063 68.01 7.73813C68.01 7.30563 68.1682 6.93188 68.4838 6.61625C68.7994 6.28875 69.1732 6.125 69.6057 6.125C70.0382 6.125 70.4125 6.28875 70.7282 6.61625C71.0438 6.93188 71.2013 7.30563 71.2013 7.73813C71.2013 8.17063 71.0438 8.54437 70.7282 8.86062C70.4125 9.17625 70.0382 9.33375 69.6057 9.33375ZM62.2932 19.5562C61.37 19.5562 60.54 19.3519 59.8032 18.9425C59.0803 18.5463 58.4754 17.9655 58.05 17.2594C57.6294 16.5463 57.4188 15.7456 57.4188 14.8569C57.4188 13.9569 57.6294 13.1562 58.05 12.455C58.4754 11.7489 59.0803 11.1681 59.8032 10.7719C60.54 10.3506 61.37 10.1406 62.2932 10.1406C63.2169 10.1406 64.0407 10.3506 64.7657 10.7719C65.4858 11.1655 66.0857 11.7472 66.5013 12.455C66.9338 13.1562 67.15 13.9569 67.15 14.8569C67.15 15.7456 66.9338 16.5463 66.5013 17.2594C66.0857 17.9671 65.4858 18.5489 64.7657 18.9425C64.0294 19.3519 63.205 19.5562 62.2932 19.5562ZM62.2932 17.1894C62.7257 17.1894 63.1 17.0837 63.4157 16.8737C63.7314 16.6634 63.9855 16.3728 64.1519 16.0319C64.3275 15.6812 64.415 15.2838 64.415 14.8394C64.415 14.4069 64.3275 14.0156 64.1519 13.6644C63.9855 13.3236 63.7314 13.0333 63.4157 12.8231C63.1 12.6125 62.7257 12.5075 62.2932 12.5075C61.8607 12.5075 61.4807 12.6125 61.1538 12.8231C60.8379 13.0335 60.5836 13.3241 60.4169 13.665C60.2383 14.0306 60.1484 14.4331 60.1544 14.84C60.1544 15.2838 60.2419 15.6812 60.4169 16.0319C60.5837 16.3728 60.838 16.6633 61.1538 16.8737C61.4807 17.0837 61.8607 17.1894 62.2932 17.1894ZM48.5863 22.9056V20.5731H53.0744C53.1556 20.5755 53.2364 20.5611 53.3119 20.531C53.3873 20.5009 53.4558 20.4557 53.5132 20.3981C53.5701 20.3478 53.6153 20.2855 53.6456 20.2157C53.6758 20.146 53.6904 20.0704 53.6882 19.9944V18.0131H53.6357C53.4138 18.2712 53.1607 18.5006 52.8819 18.6969C52.6244 18.8844 52.3319 19.0244 52.005 19.1181C51.6571 19.2159 51.297 19.263 50.9357 19.2581C50.1407 19.2581 49.4275 19.0706 48.7963 18.6969C48.1769 18.3112 47.6857 17.7794 47.3232 17.1012C46.9732 16.4237 46.7975 15.6519 46.7975 14.7869C46.7975 13.9337 46.9788 13.1562 47.3413 12.455C47.715 11.7538 48.2588 11.1925 48.9719 10.7719C49.6844 10.3506 50.5557 10.1406 51.5844 10.1406C52.5663 10.1406 53.4138 10.345 54.1269 10.7544C54.843 11.1431 55.4285 11.7344 55.81 12.4544C56.2075 13.1794 56.4063 14.0331 56.4063 15.015V20.275C56.4063 21.0812 56.1669 21.7188 55.6875 22.1863C55.22 22.6656 54.5713 22.905 53.7413 22.905L48.5863 22.9056ZM51.6019 16.9787C52.0225 16.9787 52.385 16.885 52.6894 16.6981C52.9897 16.5031 53.2318 16.2306 53.39 15.9094C53.5563 15.5712 53.64 15.1988 53.6357 14.8219C53.6357 14.4013 53.5544 14.0156 53.3907 13.665C53.2397 13.3291 52.9963 13.0432 52.6888 12.8406C52.385 12.63 52.0225 12.525 51.6013 12.525C51.1925 12.525 50.83 12.6244 50.5144 12.8231C50.2107 13.0219 49.9769 13.2906 49.8132 13.6294C49.65 13.9688 49.5682 14.3481 49.5682 14.7694C49.5682 15.1788 49.6494 15.5525 49.8132 15.8919C49.9769 16.2188 50.2107 16.4819 50.515 16.6806C50.83 16.8794 51.1925 16.9787 51.6019 16.9787ZM41.2732 19.5562C40.35 19.5562 39.52 19.3519 38.7838 18.9425C38.0607 18.5464 37.4555 17.9656 37.03 17.2594C36.6094 16.5463 36.3988 15.7456 36.3988 14.8569C36.3988 13.9569 36.6094 13.1562 37.03 12.455C37.4555 11.7488 38.0607 11.168 38.7838 10.7719C39.52 10.3506 40.35 10.1406 41.2732 10.1406C42.1969 10.1406 43.0207 10.3506 43.7457 10.7719C44.4659 11.1654 45.0658 11.7472 45.4813 12.455C45.9138 13.1562 46.13 13.9569 46.13 14.8569C46.13 15.7456 45.9138 16.5463 45.4813 17.2594C45.0658 17.9672 44.4659 18.5489 43.7457 18.9425C43.0094 19.3519 42.185 19.5562 41.2732 19.5562ZM41.2732 17.1894C41.7057 17.1894 42.0794 17.0837 42.3957 16.8737C42.7112 16.6632 42.9653 16.3727 43.1319 16.0319C43.3069 15.6812 43.3944 15.2838 43.3944 14.8394C43.3944 14.4069 43.3069 14.0156 43.1319 13.6644C42.9652 13.3238 42.7112 13.0335 42.3957 12.8231C42.08 12.6125 41.7057 12.5075 41.2732 12.5075C40.8407 12.5075 40.4607 12.6125 40.1338 12.8231C39.8179 13.0335 39.5636 13.3241 39.3969 13.665C39.2183 14.0306 39.1284 14.4332 39.1344 14.84C39.1344 15.2838 39.2219 15.6812 39.3969 16.0319C39.5637 16.3728 39.818 16.6633 40.1338 16.8737C40.4607 17.0837 40.8407 17.1894 41.2732 17.1894ZM32.5694 19.3456C31.8094 19.3456 31.1432 19.1769 30.5707 18.8375C30.0138 18.5146 29.5537 18.0485 29.2382 17.4875C28.9225 16.9263 28.7644 16.3062 28.7644 15.6287V7.07188H31.71V15.8387C31.71 16.12 31.81 16.365 32.0082 16.5756C32.2069 16.7856 32.4519 16.8912 32.7444 16.8912H35.9882V19.3456H32.5694Z" fill="#101F56"/>
</g>
</g>
<defs>
<clipPath id="clip0_79_4292">
<rect width="116.875" height="25" fill="white" transform="translate(0.352539 0.5)"/>
</clipPath>
</defs>
</svg>
