<svg width="94" height="39" viewBox="0 0 94 39" fill="none" xmlns="http://www.w3.org/2000/svg">
<g clip-path="url(#clip0_79_4633)">
<mask id="mask0_79_4633" style="mask-type:luminance" maskUnits="userSpaceOnUse" x="0" y="0" width="94" height="39">
<path d="M0 0.700195H94V38.3002H0V0.700195Z" fill="white"/>
</mask>
<g mask="url(#mask0_79_4633)">
<path d="M4.48388 4.6811C4.72828 3.52114 5.88448 2.5802 7.0623 2.5802H13.4656L8.14048 27.7938H1.7372C0.558435 27.7938 -0.199205 26.8538 0.0461352 25.6929L4.48388 4.6811ZM25.8285 4.6811C26.0738 3.52114 27.2291 2.5802 28.4069 2.5802H34.8102L29.4851 27.7938H23.0818C21.903 27.7938 21.1454 26.8538 21.3907 25.6929L25.8285 4.6811ZM68.5185 4.6811C68.7629 3.52114 69.9173 2.5802 71.097 2.5802H77.5003L72.1751 27.7938H65.7719C64.5931 27.7938 63.8364 26.8538 64.0817 25.6929L68.5185 4.6811ZM36.9449 2.5802H43.3482C44.5269 2.5802 45.2846 3.5202 45.0402 4.6811L40.6015 25.6929C40.3571 26.8538 39.2018 27.7938 38.0231 27.7938H31.6198L36.9449 2.5802ZM79.635 2.5802H86.0383C87.217 2.5802 87.9747 3.5202 87.7303 4.6811L83.2907 25.6929C83.0463 26.8538 81.8919 27.7938 80.7132 27.7938H74.309L79.635 2.5802ZM47.174 4.6811C47.4184 3.52114 48.5727 2.5802 49.7515 2.5802H56.1557L50.8296 27.7938H44.4264C43.2476 27.7938 42.49 26.8538 42.7362 25.6929L47.173 4.6811H47.174ZM58.2895 2.5802H64.6937C65.8725 2.5802 66.6301 3.5202 66.3838 4.6811L59.7286 36.1993C59.4805 37.3593 58.3271 38.3002 57.1474 38.3002H50.7432L58.2895 2.5802ZM12.0509 19.3893H20.588L19.2569 25.6929C19.0125 26.8538 17.8563 27.7938 16.6785 27.7938H10.2743L12.049 19.3902L12.0509 19.3893ZM41.8489 29.8957H50.386L48.6112 38.3002H42.208C41.0283 38.3002 40.2716 37.3602 40.5169 36.1993L41.8489 29.8957ZM65.0236 31.8499L63.9426 36.9692C63.8956 37.1891 63.8223 37.2493 63.5986 37.2493H63.107C62.8833 37.2493 62.8344 37.1891 62.8814 36.9692L63.9624 31.8499C64.0094 31.6309 64.0827 31.5698 64.3064 31.5698H64.798C65.0218 31.5698 65.0706 31.6309 65.0236 31.8499ZM66.4449 35.3035H66.3443C66.2372 35.3035 66.1996 35.3336 66.178 35.4398L65.8546 36.9692C65.8076 37.1891 65.7333 37.2493 65.5106 37.2493H65.018C64.7952 37.2493 64.7463 37.1891 64.7924 36.9692L65.8734 31.8499C65.9204 31.6309 65.9956 31.5698 66.2184 31.5698H67.2336C68.4029 31.5698 68.8457 31.9862 68.6295 33.008L68.449 33.8643C68.2328 34.8871 67.6143 35.3035 66.4449 35.3035ZM66.742 32.7664L66.46 34.1069C66.4365 34.2131 66.4609 34.2432 66.569 34.2432H66.7307C67.1067 34.2432 67.3088 34.0918 67.3906 33.7055L67.5033 33.1678C67.5851 32.7824 67.4479 32.6301 67.0709 32.6301H66.9093C66.8021 32.6301 66.7645 32.6602 66.742 32.7664ZM70.2557 33.5917L71.0547 34.4706C71.4739 34.9247 71.5322 35.1973 71.425 35.7049L71.3968 35.8412C71.1947 36.7953 70.7135 37.3254 69.5977 37.3254C68.4828 37.3254 68.2074 36.8789 68.465 35.6588L68.4969 35.5084C68.5439 35.2884 68.6191 35.2273 68.841 35.2273H69.3636C69.5873 35.2273 69.6362 35.2884 69.5892 35.5075L69.5187 35.8412C69.4548 36.1438 69.5526 36.2651 69.8214 36.2651C70.0912 36.2651 70.2378 36.1523 70.2961 35.8797L70.3262 35.7349C70.3713 35.5225 70.3469 35.4172 70.1156 35.1672L69.3636 34.3569C68.9425 33.9104 68.8889 33.6519 68.997 33.1443L69.0308 32.9789C69.2329 32.0248 69.7142 31.4937 70.8291 31.4937C71.9448 31.4937 72.2203 31.9411 71.9627 33.1603L71.9308 33.3116C71.8838 33.5316 71.8095 33.5917 71.5867 33.5917H71.0641C70.8413 33.5917 70.7924 33.5316 70.8385 33.3116L70.909 32.9789C70.9729 32.6752 70.8761 32.5549 70.6063 32.5549C70.3374 32.5549 70.1899 32.6677 70.1325 32.9403L70.1053 33.0691C70.0583 33.2891 70.0818 33.3953 70.2557 33.5917ZM74.7601 31.8499C74.8072 31.6309 74.8805 31.5698 75.1042 31.5698H75.5958C75.8195 31.5698 75.8684 31.6309 75.8214 31.8499L75.0168 35.6597C74.7592 36.8789 74.2958 37.3254 73.18 37.3254C72.0652 37.3254 71.7898 36.8789 72.0473 35.6588L72.852 31.8499C72.8989 31.6309 72.9742 31.5698 73.196 31.5698H73.6886C73.9113 31.5698 73.9612 31.6309 73.9142 31.8499L73.071 35.8412C73.007 36.1438 73.1123 36.2651 73.4047 36.2651C73.6885 36.2651 73.8531 36.1438 73.917 35.8412L74.7601 31.8499ZM77.9618 34.9322C77.9646 34.9933 77.9844 35.0074 78.0229 35.0074C78.0605 35.0074 78.0887 34.9933 78.1169 34.9322L79.4451 31.7672C79.5109 31.6074 79.5871 31.5698 79.7798 31.5698H80.5261C80.7489 31.5698 80.7987 31.6309 80.7517 31.8499L79.6707 36.9692C79.6237 37.1891 79.5485 37.2493 79.3257 37.2493H78.9723C78.7495 37.2493 78.6997 37.1891 78.7467 36.9692L79.2656 34.5158C79.2797 34.4481 79.2674 34.4321 79.2214 34.4321C79.1904 34.4321 79.1556 34.4481 79.1368 34.5007L78.0633 37.0002C77.9862 37.1816 77.8875 37.2493 77.6648 37.2493H77.4561C77.2248 37.2493 77.1553 37.1816 77.1553 37.0002L77.129 34.4998C77.1243 34.4471 77.112 34.4321 77.0735 34.4321C77.0274 34.4321 77.0086 34.4481 76.9945 34.5158L76.4775 36.9692C76.4305 37.1891 76.3563 37.2493 76.1325 37.2493H75.7791C75.5554 37.2493 75.5065 37.1891 75.5535 36.9692L76.6345 31.8499C76.6815 31.6309 76.7567 31.5698 76.9785 31.5698H77.6178C77.8866 31.5698 77.9731 31.6309 77.9712 31.896L77.9618 34.9322ZM94.0001 2.5802C94.0001 3.6189 93.1635 4.4602 92.1323 4.4602C91.8862 4.45946 91.6426 4.41023 91.4156 4.31534C91.1885 4.22045 90.9823 4.08175 90.8089 3.90717C90.6354 3.73258 90.4981 3.52553 90.4047 3.29784C90.3113 3.07015 90.2636 2.8263 90.2645 2.5802C90.2645 1.5415 91.1011 0.700195 92.1323 0.700195C93.1635 0.700195 94.0001 1.5415 94.0001 2.5802Z" fill="#171717"/>
</g>
</g>
<defs>
<clipPath id="clip0_79_4633">
<rect width="94" height="37.6" fill="white" transform="translate(0 0.700195)"/>
</clipPath>
</defs>
</svg>
