<svg width="42" height="32" viewBox="0 0 42 32" fill="none" xmlns="http://www.w3.org/2000/svg">
<g clip-path="url(#clip0_79_4304)">
<mask id="mask0_79_4304" style="mask-type:luminance" maskUnits="userSpaceOnUse" x="0" y="0" width="42" height="32">
<path d="M0.875366 0.5H41.7046V31.5H0.875366V0.5Z" fill="white"/>
</mask>
<g mask="url(#mask0_79_4304)">
<path d="M41.7046 1.63415C41.7046 1.93494 41.5851 2.22342 41.3724 2.43611C41.1597 2.6488 40.8712 2.76829 40.5704 2.76829C40.2696 2.76829 39.9812 2.6488 39.7685 2.43611C39.5558 2.22342 39.4363 1.93494 39.4363 1.63415C39.4363 1.33335 39.5558 1.04488 39.7685 0.832184C39.9812 0.61949 40.2696 0.5 40.5704 0.5C40.8712 0.5 41.1597 0.61949 41.3724 0.832184C41.5851 1.04488 41.7046 1.33335 41.7046 1.63415Z" fill="#101F56"/>
<path fill-rule="evenodd" clip-rule="evenodd" d="M11.2717 31.3442C5.5299 31.3442 0.875366 26.6897 0.875366 20.9479V1.2561H4.65585V20.9479C4.65585 22.7025 5.35288 24.3853 6.59359 25.626C7.83431 26.8667 9.51707 27.5638 11.2717 27.5638C14.9713 27.5638 17.8876 24.7125 17.8876 21.1037H21.668V26.7744C21.668 27.0251 21.7676 27.2655 21.9449 27.4427C22.1221 27.6199 22.3625 27.7195 22.6132 27.7195C22.8638 27.7195 23.1042 27.6199 23.2815 27.4427C23.4587 27.2655 23.5583 27.0251 23.5583 26.7744V20.064C22.8716 20.2041 22.1624 20.1896 21.4821 20.0218C20.8017 19.854 20.1671 19.537 19.6243 19.0937C19.0816 18.6504 18.6441 18.092 18.3438 17.4589C18.0434 16.8257 17.8876 16.1337 17.8876 15.4329V5.98171C17.8876 4.7284 18.3854 3.52643 19.2717 2.6402C20.1579 1.75398 21.3599 1.2561 22.6132 1.2561C23.8665 1.2561 25.0685 1.75398 25.9547 2.6402C26.8409 3.52643 27.3388 4.7284 27.3388 5.98171V26.7744C27.3388 27.0251 27.4384 27.2655 27.6156 27.4427C27.7928 27.6199 28.0332 27.7195 28.2839 27.7195C28.5346 27.7195 28.775 27.6199 28.9522 27.4427C29.1294 27.2655 29.229 27.0251 29.229 26.7744V5.98171C29.229 4.7284 29.7269 3.52643 30.6131 2.6402C31.4993 1.75398 32.7013 1.2561 33.9546 1.2561C35.2079 1.2561 36.4099 1.75398 37.2961 2.6402C38.1824 3.52643 38.6802 4.7284 38.6802 5.98171V26.7744C38.6802 27.652 38.4359 28.5123 37.9745 29.2588C37.5131 30.0053 36.8529 30.6086 36.068 31.0011C35.283 31.3936 34.4043 31.5597 33.5303 31.4809C32.6562 31.4021 31.8214 31.0814 31.1193 30.5549C30.302 31.1697 29.3066 31.5015 28.2839 31.5C27.2612 31.5015 26.2658 31.1697 25.4485 30.5549C24.8798 30.9814 24.2221 31.2741 23.5246 31.4112C22.827 31.5484 22.1075 31.5264 21.4196 31.3469C20.7317 31.1674 20.0932 30.835 19.5516 30.3746C19.0099 29.9141 18.5792 29.3374 18.2913 28.6873C16.4343 30.3485 13.9642 31.3442 11.2717 31.3442ZM33.9546 27.7195C33.4329 27.7195 33.0095 27.2961 33.0095 26.7744V5.98171C33.0095 5.73105 33.1091 5.49066 33.2863 5.31341C33.4636 5.13617 33.704 5.03659 33.9546 5.03659C34.2053 5.03659 34.4457 5.13617 34.6229 5.31341C34.8002 5.49066 34.8998 5.73105 34.8998 5.98171V26.7744C34.8998 27.2961 34.4763 27.7195 33.9546 27.7195ZM23.5583 15.4329C23.5583 15.6836 23.4587 15.924 23.2815 16.1012C23.1042 16.2785 22.8638 16.3781 22.6132 16.3781C22.3625 16.3781 22.1221 16.2785 21.9449 16.1012C21.7676 15.924 21.668 15.6836 21.668 15.4329V5.98171C21.668 5.73105 21.7676 5.49066 21.9449 5.31341C22.1221 5.13617 22.3625 5.03659 22.6132 5.03659C22.8638 5.03659 23.1042 5.13617 23.2815 5.31341C23.4587 5.49066 23.5583 5.73105 23.5583 5.98171V15.4329Z" fill="#101F56"/>
<path fill-rule="evenodd" clip-rule="evenodd" d="M6.54614 21.1037C6.54614 22.357 7.04402 23.559 7.93024 24.4452C8.81647 25.3314 10.0184 25.8293 11.2718 25.8293C12.5251 25.8293 13.727 25.3314 14.6133 24.4452C15.4995 23.559 15.9974 22.357 15.9974 21.1037V5.98171C15.9974 4.7284 15.4995 3.52643 14.6133 2.6402C13.727 1.75398 12.5251 1.2561 11.2718 1.2561C10.0184 1.2561 8.81647 1.75398 7.93024 2.6402C7.04402 3.52643 6.54614 4.7284 6.54614 5.98171V21.1037ZM11.2718 22.0488C10.75 22.0488 10.3266 21.6254 10.3266 21.1037V5.98171C10.3266 5.73105 10.4262 5.49066 10.6035 5.31341C10.7807 5.13617 11.0211 5.03659 11.2718 5.03659C11.5224 5.03659 11.7628 5.13617 11.9401 5.31341C12.1173 5.49066 12.2169 5.73105 12.2169 5.98171V21.1037C12.2169 21.6254 11.7935 22.0488 11.2718 22.0488Z" fill="#101F56"/>
</g>
</g>
<defs>
<clipPath id="clip0_79_4304">
<rect width="40.8293" height="31" fill="white" transform="translate(0.875366 0.5)"/>
</clipPath>
</defs>
</svg>
