<svg width="54" height="22" viewBox="0 0 54 22" fill="none" xmlns="http://www.w3.org/2000/svg">
<g clip-path="url(#clip0_79_4256)">
<mask id="mask0_79_4256" style="mask-type:luminance" maskUnits="userSpaceOnUse" x="-62" y="0" width="116" height="22">
<path d="M-61.21 0.545471H53.79V21.4546H-61.21V0.545471Z" fill="white"/>
</mask>
<g mask="url(#mask0_79_4256)">
<path d="M-61.21 10.4773H-56.6236C-55.5771 10.4773 -54.4929 10.4135 -53.6022 9.86465C-52.9059 9.43565 -52.3198 8.84953 -51.8908 8.15324C-51.3419 7.26252 -51.2781 6.17838 -51.2781 5.13188V0.545471H-58.0736C-58.9054 0.545471 -59.7032 0.875909 -60.2913 1.46409C-60.8795 2.05227 -61.21 2.85002 -61.21 3.68184V10.4773ZM-36.9267 1.59093C-36.9267 1.8682 -37.0368 2.13411 -37.2329 2.33017C-37.4289 2.52623 -37.6948 2.63638 -37.9721 2.63638C-38.2494 2.63638 -38.5153 2.52623 -38.7114 2.33017C-38.9074 2.13411 -39.0176 1.8682 -39.0176 1.59093C-39.0176 1.31365 -38.9074 1.04774 -38.7114 0.851678C-38.5153 0.655617 -38.2494 0.545471 -37.9721 0.545471C-37.6948 0.545471 -37.4289 0.655617 -37.2329 0.851678C-37.0368 1.04774 -36.9267 1.31365 -36.9267 1.59093ZM49.4571 6.87256C52.3797 6.87256 53.79 8.91381 53.79 11.2781V15.7187H50.7316V11.805C50.7316 10.7334 50.3406 9.84897 49.2193 9.84897C48.0981 9.84897 47.7243 10.7334 47.7243 11.805V15.7182H44.6658V11.805C44.6658 10.7334 44.2921 9.84897 43.1703 9.84897C42.0491 9.84897 41.6581 10.7334 41.6581 11.805V15.7182H38.6001V11.2776C38.6001 8.91329 40.0099 6.87204 42.9325 6.87204C44.5299 6.87204 45.6852 7.5014 46.2121 8.53902C46.7724 7.5014 47.9961 6.87152 49.4571 6.87152V6.87256ZM33.1041 12.9968C34.0895 12.9968 34.5145 12.0951 34.5145 11.023V7.21234H37.5724V11.3973C37.5724 13.898 36.1114 15.9738 33.1041 15.9738C30.0964 15.9738 28.6354 13.8985 28.6354 11.3973V7.21234H31.6938V11.023C31.6938 12.0946 32.1183 12.9968 33.1041 12.9968ZM24.1383 15.9905C22.2184 15.9905 20.9779 15.3272 20.2471 14.0344L22.4562 12.7924C22.762 13.3366 23.2204 13.6089 23.9852 13.6089C24.614 13.6089 24.9026 13.3878 24.9026 13.1155C24.9026 12.0779 20.417 13.1327 20.417 9.83277C20.417 8.23322 21.7761 6.94052 24.0871 6.94052C26.109 6.94052 27.2135 7.9269 27.7065 8.87984L25.4974 10.1386C25.3108 9.62838 24.7327 9.32206 24.1551 9.32206C23.7134 9.32206 23.4755 9.5092 23.4755 9.76429C23.4755 10.8192 27.961 9.84949 27.961 13.0475C27.961 14.8337 26.2109 15.9905 24.1383 15.9905ZM13.4527 19.6313H10.3943V11.4485C10.3943 8.84534 12.3482 6.95724 15.0669 6.95724C17.7177 6.95724 19.7396 8.98177 19.7396 11.4485C19.7396 14.1704 17.9383 15.9738 15.2368 15.9738C14.608 15.9738 13.9796 15.7866 13.4527 15.497V19.6313ZM15.0669 13.0988C16.0355 13.0988 16.6811 12.3502 16.6811 11.4652C16.6811 10.5641 16.0355 9.83224 15.0669 9.83224C14.0983 9.83224 13.4527 10.5641 13.4527 11.4658C13.4527 12.3502 14.0983 13.0988 15.0669 13.0988ZM7.33056 6.31115C6.32797 6.31115 5.49579 5.4774 5.49579 4.47377C5.49579 3.47013 6.32797 2.63638 7.33056 2.63638C8.33315 2.63638 9.16586 3.47013 9.16586 4.47377C9.16586 5.4774 8.33315 6.31115 7.33056 6.31115ZM5.80158 7.21234H8.86005V15.7187H5.80158V7.21234ZM-0.066555 15.9738C-2.7173 15.9738 -4.73922 13.9325 -4.73922 11.4485C-4.73922 8.98177 -2.7173 6.94052 -0.066555 6.94052C2.5842 6.94052 4.6061 8.98177 4.6061 11.4485C4.6061 13.9325 2.5842 15.9738 -0.066555 15.9738ZM-0.066555 13.0988C0.902061 13.0988 1.54763 12.3502 1.54763 11.4652C1.54763 10.5641 0.902061 9.81552 -0.066555 9.81552C-1.03517 9.81552 -1.68073 10.5641 -1.68073 11.4652C-1.68073 12.3502 -1.03517 13.0988 -0.066555 13.0988ZM-10.5143 19.8864C-12.6209 19.8864 -14.1504 18.9507 -14.9319 17.2832L-12.4003 15.9225C-12.1285 16.5012 -11.6188 17.0966 -10.5655 17.0966C-9.46048 17.0966 -8.73024 16.3987 -8.64503 15.174C-9.05276 15.5315 -9.69885 15.8034 -10.6669 15.8034C-13.0291 15.8034 -14.9324 13.9832 -14.9324 11.4313C-14.9324 8.96504 -12.91 6.95724 -10.2592 6.95724C-7.54051 6.95724 -5.58655 8.84586 -5.58655 11.4485V14.817C-5.58655 17.8791 -7.71092 19.8864 -10.5143 19.8864ZM-10.3104 12.9289C-9.39305 12.9289 -8.69626 12.299 -8.69626 11.3633C-8.69626 10.4449 -9.39253 9.83224 -10.3104 9.83224C-11.2111 9.83224 -11.9246 10.4449 -11.9246 11.3638C-11.9246 12.2995 -11.2111 12.9284 -10.3104 12.9284V12.9289ZM-20.1199 15.9738C-22.7707 15.9738 -24.7931 13.9325 -24.7931 11.4485C-24.7931 8.98177 -22.7707 6.94052 -20.1199 6.94052C-17.4697 6.94052 -15.4473 8.98177 -15.4473 11.4485C-15.4473 13.9325 -17.4692 15.9738 -20.1199 15.9738ZM-20.1199 13.0988C-19.1513 13.0988 -18.5058 12.3502 -18.5058 11.4652C-18.5058 10.5641 -19.1513 9.81552 -20.1199 9.81552C-21.0886 9.81552 -21.7341 10.5641 -21.7341 11.4652C-21.7341 12.3502 -21.0886 13.0988 -20.1199 13.0988ZM-30.3623 4.23593V12.8264H-25.2986V15.7187H-30.7872C-32.7239 15.7187 -33.5054 14.6978 -33.5054 13.0815V4.23593H-30.3623Z" fill="#101F56"/>
</g>
</g>
<defs>
<clipPath id="clip0_79_4256">
<rect width="115" height="20.9091" fill="white" transform="translate(-61.21 0.545471)"/>
</clipPath>
</defs>
</svg>
