<svg width="63" height="63" viewBox="0 0 63 63" fill="none" xmlns="http://www.w3.org/2000/svg">
<g filter="url(#filter0_d_79_4453)">
<g clip-path="url(#clip0_79_4453)">
<rect x="7.33337" y="4" width="48" height="48" rx="14.4" fill="#F2F4F7"/>
<g clip-path="url(#clip1_79_4453)">
<path opacity="0.1" d="M23.8334 34H38.8334C39.6618 34 40.3334 33.3284 40.3334 32.5V22C40.3334 21.1716 39.6618 20.5 38.8334 20.5H23.8334C23.0049 20.5 22.3334 21.1716 22.3334 22V32.5C22.3334 33.3284 23.0049 34 23.8334 34Z" fill="#203FAE"/>
<path d="M23.8334 34H38.8334C39.6618 34 40.3334 33.3284 40.3334 32.5V22C40.3334 21.1716 39.6618 20.5 38.8334 20.5H23.8334C23.0049 20.5 22.3334 21.1716 22.3334 22V32.5C22.3334 33.3284 23.0049 34 23.8334 34Z" stroke="#203FAE" stroke-width="1.5" stroke-linecap="round" stroke-linejoin="round"/>
<path d="M34.3334 37H28.3334" stroke="#203FAE" stroke-width="1.5" stroke-linecap="round" stroke-linejoin="round"/>
</g>
<rect x="8.53337" y="5.2" width="45.6" height="45.6" rx="13.2" stroke="white" stroke-width="2.4"/>
</g>
</g>
<defs>
<filter id="filter0_d_79_4453" x="0.133374" y="0.4" width="62.4" height="62.4" filterUnits="userSpaceOnUse" color-interpolation-filters="sRGB">
<feFlood flood-opacity="0" result="BackgroundImageFix"/>
<feColorMatrix in="SourceAlpha" type="matrix" values="0 0 0 0 0 0 0 0 0 0 0 0 0 0 0 0 0 0 127 0" result="hardAlpha"/>
<feOffset dy="3.6"/>
<feGaussianBlur stdDeviation="3.6"/>
<feComposite in2="hardAlpha" operator="out"/>
<feColorMatrix type="matrix" values="0 0 0 0 0.317647 0 0 0 0 0.372549 0 0 0 0 0.458824 0 0 0 0.16 0"/>
<feBlend mode="normal" in2="BackgroundImageFix" result="effect1_dropShadow_79_4453"/>
<feBlend mode="normal" in="SourceGraphic" in2="effect1_dropShadow_79_4453" result="shape"/>
</filter>
<clipPath id="clip0_79_4453">
<rect x="7.33337" y="4" width="48" height="48" rx="14.4" fill="white"/>
</clipPath>
<clipPath id="clip1_79_4453">
<rect width="24" height="24" fill="white" transform="translate(19.3334 16)"/>
</clipPath>
</defs>
</svg>
