<svg width="63" height="63" viewBox="0 0 63 63" fill="none" xmlns="http://www.w3.org/2000/svg">
<g filter="url(#filter0_d_79_4530)">
<g clip-path="url(#clip0_79_4530)">
<rect x="7.66675" y="4" width="48" height="48" rx="14.4" fill="#F2F4F7"/>
<g clip-path="url(#clip1_79_4530)">
<path opacity="0.1" d="M39.9167 26.5V21.25C39.9167 21.0511 39.8377 20.8603 39.6971 20.7197C39.5564 20.579 39.3657 20.5 39.1667 20.5H24.1667C23.9678 20.5 23.7771 20.579 23.6364 20.7197C23.4958 20.8603 23.4167 21.0511 23.4167 21.25V26.5C23.4167 35.5 31.6667 37.75 31.6667 37.75C31.6667 37.75 39.9167 35.5 39.9167 26.5Z" fill="#203FAE"/>
<path d="M39.9167 26.5V21.25C39.9167 21.0511 39.8377 20.8603 39.6971 20.7197C39.5564 20.579 39.3657 20.5 39.1667 20.5H24.1667C23.9678 20.5 23.7771 20.579 23.6364 20.7197C23.4958 20.8603 23.4167 21.0511 23.4167 21.25V26.5C23.4167 35.5 31.6667 37.75 31.6667 37.75C31.6667 37.75 39.9167 35.5 39.9167 26.5Z" stroke="#203FAE" stroke-width="1.5" stroke-linecap="round" stroke-linejoin="round"/>
</g>
<rect x="8.86675" y="5.2" width="45.6" height="45.6" rx="13.2" stroke="white" stroke-width="2.4"/>
</g>
</g>
<defs>
<filter id="filter0_d_79_4530" x="0.466748" y="0.4" width="62.4" height="62.4" filterUnits="userSpaceOnUse" color-interpolation-filters="sRGB">
<feFlood flood-opacity="0" result="BackgroundImageFix"/>
<feColorMatrix in="SourceAlpha" type="matrix" values="0 0 0 0 0 0 0 0 0 0 0 0 0 0 0 0 0 0 127 0" result="hardAlpha"/>
<feOffset dy="3.6"/>
<feGaussianBlur stdDeviation="3.6"/>
<feComposite in2="hardAlpha" operator="out"/>
<feColorMatrix type="matrix" values="0 0 0 0 0.317647 0 0 0 0 0.372549 0 0 0 0 0.458824 0 0 0 0.16 0"/>
<feBlend mode="normal" in2="BackgroundImageFix" result="effect1_dropShadow_79_4530"/>
<feBlend mode="normal" in="SourceGraphic" in2="effect1_dropShadow_79_4530" result="shape"/>
</filter>
<clipPath id="clip0_79_4530">
<rect x="7.66675" y="4" width="48" height="48" rx="14.4" fill="white"/>
</clipPath>
<clipPath id="clip1_79_4530">
<rect width="24" height="24" fill="white" transform="translate(19.6667 16)"/>
</clipPath>
</defs>
</svg>
