<svg width="63" height="63" viewBox="0 0 63 63" fill="none" xmlns="http://www.w3.org/2000/svg">
<g filter="url(#filter0_d_79_4484)">
<g clip-path="url(#clip0_79_4484)">
<rect x="7.66675" y="4" width="48" height="48" rx="14.4" fill="#F2F4F7"/>
<g clip-path="url(#clip1_79_4484)">
<path opacity="0.1" d="M31.6667 28C36.2231 28 39.9167 25.9853 39.9167 23.5C39.9167 21.0147 36.2231 19 31.6667 19C27.1104 19 23.4167 21.0147 23.4167 23.5C23.4167 25.9853 27.1104 28 31.6667 28Z" fill="#203FAE"/>
<path d="M31.6667 28C36.2231 28 39.9167 25.9853 39.9167 23.5C39.9167 21.0147 36.2231 19 31.6667 19C27.1104 19 23.4167 21.0147 23.4167 23.5C23.4167 25.9853 27.1104 28 31.6667 28Z" stroke="#203FAE" stroke-width="1.5" stroke-linecap="round" stroke-linejoin="round"/>
<path d="M23.4167 23.5V28C23.4167 30.4853 27.1105 32.5 31.6667 32.5C36.223 32.5 39.9167 30.4853 39.9167 28V23.5" stroke="#203FAE" stroke-width="1.5" stroke-linecap="round" stroke-linejoin="round"/>
<path d="M23.4167 28V32.5C23.4167 34.9853 27.1105 37 31.6667 37C36.223 37 39.9167 34.9853 39.9167 32.5V28" stroke="#203FAE" stroke-width="1.5" stroke-linecap="round" stroke-linejoin="round"/>
</g>
<rect x="8.86675" y="5.2" width="45.6" height="45.6" rx="13.2" stroke="white" stroke-width="2.4"/>
</g>
</g>
<defs>
<filter id="filter0_d_79_4484" x="0.466748" y="0.4" width="62.4" height="62.4" filterUnits="userSpaceOnUse" color-interpolation-filters="sRGB">
<feFlood flood-opacity="0" result="BackgroundImageFix"/>
<feColorMatrix in="SourceAlpha" type="matrix" values="0 0 0 0 0 0 0 0 0 0 0 0 0 0 0 0 0 0 127 0" result="hardAlpha"/>
<feOffset dy="3.6"/>
<feGaussianBlur stdDeviation="3.6"/>
<feComposite in2="hardAlpha" operator="out"/>
<feColorMatrix type="matrix" values="0 0 0 0 0.317647 0 0 0 0 0.372549 0 0 0 0 0.458824 0 0 0 0.16 0"/>
<feBlend mode="normal" in2="BackgroundImageFix" result="effect1_dropShadow_79_4484"/>
<feBlend mode="normal" in="SourceGraphic" in2="effect1_dropShadow_79_4484" result="shape"/>
</filter>
<clipPath id="clip0_79_4484">
<rect x="7.66675" y="4" width="48" height="48" rx="14.4" fill="white"/>
</clipPath>
<clipPath id="clip1_79_4484">
<rect width="24" height="24" fill="white" transform="translate(19.6667 16)"/>
</clipPath>
</defs>
</svg>
