<svg width="62" height="80" viewBox="0 0 62 80" fill="none" xmlns="http://www.w3.org/2000/svg">
<g clip-path="url(#clip0_210_10913)">
<rect x="20.7212" y="36.7074" width="21.2534" height="13.7524" rx="6.87622" fill="#94A6EB"/>
<path d="M4.82804 10.6493L4.96396 10.8622L5.03995 10.8706C5.09457 10.7862 5.11607 10.7604 5.12793 10.656C5.31081 9.0502 6.12548 7.28154 7.06409 5.97026C8.95564 3.35165 11.7872 1.55499 14.9737 0.951481C15.9569 0.757474 16.7377 0.780313 17.6395 0.622528L17.7262 0.606934C15.6432 1.7587 13.7307 3.91833 12.5939 5.97358C12.3264 6.45713 12.0235 7.17213 11.7828 7.69595C11.0937 9.64462 10.9222 10.5346 10.7121 12.5845C10.7121 12.7155 10.7189 12.9545 10.709 13.076C10.734 18.0724 12.0352 20.7377 15.4926 24.3053C15.9347 24.705 16.4224 25.0902 16.6835 25.2958C17.4214 25.8872 18.2147 26.4071 19.0524 26.8483C19.1335 25.7691 19.2585 24.9285 19.6439 23.901C20.2587 22.2616 21.8662 20.2428 23.5012 19.525C23.9361 19.264 24.2535 19.1805 24.7305 19.0195C23.5493 21.6749 23.6547 24.3053 24.642 27.0383C25.0625 28.2022 26.2104 30.1601 27.2269 30.902C29.1242 30.3029 32.844 30.5596 34.8026 30.8235C35.8314 30.0116 36.9503 28.1665 37.377 26.9369C38.2985 24.2808 38.3575 21.5313 37.1412 18.9747C38.321 19.4747 39.1426 19.8656 40.1087 20.7575C41.8398 22.3557 42.784 24.5594 42.8607 26.895C45.1122 25.6573 47.0289 24.0777 48.5584 21.9928C50.7995 18.938 51.6751 15.0538 51.1173 11.3309C50.6272 8.05941 49.0133 4.7835 46.6223 2.46707C45.9386 1.80462 45.186 1.26644 44.4162 0.707622C44.5919 0.707745 44.7676 0.711305 44.9433 0.718427C47.5982 0.833113 51.4178 2.124 53.2368 4.10276C55.0168 5.59477 56.4321 8.11221 56.8089 10.4444C56.8089 10.4722 56.8089 10.5002 56.8089 10.5281C56.8645 10.7134 56.8834 10.7933 56.9761 10.9684C57.1607 10.8124 57.4487 9.97186 57.5425 9.72174C58.4817 7.21376 58.8356 4.72665 58.7962 2.06408C59.0191 2.34244 59.2531 2.61602 59.4389 2.91882C61.4139 5.08409 61.9652 9.18637 61.7457 11.9979C61.6985 12.6028 61.5872 14.1095 61.3896 14.6691C61.2999 15.3842 60.9448 16.5143 60.685 17.2172C58.8875 22.0822 55.2165 26.4119 51.1342 29.5544C49.7001 30.6584 48.2508 31.5348 46.6726 32.3926C49.1313 32.0018 51.4709 31.6225 53.6855 30.3677C52.8535 34.4807 51.5525 37.8028 47.8601 40.2922C46.8767 40.9553 45.1196 41.7476 43.9322 41.9091C43.415 42.0229 43.1038 42.0583 42.5727 42.1092L45.4434 61.8899C45.626 63.1555 45.7803 64.4948 46.0019 65.7465C45.2704 66.4528 44.3974 67.2044 43.6399 67.9001L38.7462 72.3915C36.1912 74.7216 33.5986 77.175 31.0024 79.4382C29.1402 77.6641 27.217 75.9778 25.3084 74.2548L15.9402 65.7776C16.3619 63.2429 16.7193 60.3692 17.0888 57.8078L19.2984 42.1495C14.6308 41.5784 10.9037 38.8196 9.26851 34.3778C8.75064 33.4867 8.3666 31.409 8.18323 30.3627C9.73299 31.1216 13.246 32.3576 14.9732 32.2657C14.4086 31.8939 13.7808 31.6097 13.2077 31.2465C4.86474 25.9596 -2.06832 16.1885 0.913829 5.97284C1.25079 4.81862 1.85466 3.77012 2.55738 2.7991C2.79673 2.44939 2.90114 2.32145 3.19239 2.01251C2.99295 4.1154 3.47214 6.64217 4.10592 8.66181C4.21045 8.99507 4.80172 10.4574 4.82804 10.6493ZM30.7942 54.3193C29.2327 53.9274 27.207 50.3492 26.4779 53.7158C26.2577 54.7328 26.4153 55.5494 26.9794 56.4177C27.101 56.6022 27.227 56.7838 27.3575 56.9622C27.6671 56.9527 28.3067 56.5814 28.6307 56.4823C30.7722 55.8273 32.4656 56.1313 34.3993 56.9745C35.4851 55.7717 35.9655 54.2495 35.0772 52.7684C34.5463 51.8833 33.9232 52.3506 33.3283 52.8005C32.7764 53.218 31.514 54.5046 30.7942 54.3193ZM27.9648 43.9615C28.079 43.847 28.0501 43.899 28.0995 43.7482C27.6479 42.9138 25.8926 41.7868 25.0081 41.4113C24.4825 41.1882 23.8989 41.0131 23.3661 40.7931C23.5245 41.5539 23.6871 42.2037 24.0955 42.8774C24.9424 44.275 26.5011 44.731 27.9648 43.9615ZM38.5505 40.7976C36.8519 41.3948 35.8474 41.6962 34.5048 42.9885C34.2944 43.191 33.9119 43.4851 33.776 43.7239C33.8277 43.8676 33.9044 43.9122 34.0205 44.0167C34.8636 44.4815 35.9059 44.4408 36.7242 43.9414C37.8677 43.2434 38.2763 42.0233 38.5505 40.7976ZM32.4306 59.1508C33.0718 58.8754 33.2815 58.7717 33.7782 58.2891C32.4106 57.4939 31.2617 57.4441 29.693 57.6511C29.2498 57.7095 28.2724 57.9642 28.0138 58.3255L28.0825 58.5055L28.1713 58.5487C28.3937 58.6593 28.6008 58.8112 28.8398 58.9338C29.9859 59.5219 31.2034 59.5166 32.4306 59.1508Z" fill="white"/>
<path d="M23.5015 19.5254C23.9363 19.2644 24.2537 19.1809 24.7307 19.0199C23.5495 21.6753 23.6549 24.3058 24.6422 27.0387C25.0627 28.2026 26.2107 30.1605 27.2271 30.9024L27.0991 30.9684C26.4117 30.3869 25.5099 29.2295 25.0944 28.4397C23.768 25.9691 23.3846 23.1054 24.0148 20.3761C24.0611 20.1684 24.198 19.8814 24.2723 19.6421L24.2125 19.5528C23.9483 19.4439 23.787 19.5203 23.5015 19.5254Z" fill="#014B8E"/>
<path d="M59.439 2.91968C61.414 5.08495 61.9653 9.18723 61.7458 11.9987C61.6986 12.6036 61.5873 14.1104 61.3897 14.6699C61.2645 14.4984 61.4174 13.6563 61.4563 13.3916C61.8945 10.4137 61.5985 7.30057 60.3443 4.54259C60.0988 4.00268 59.5803 3.51017 59.439 2.91968Z" fill="#014B8E"/>
<path d="M8.18311 30.3636C9.73287 31.1226 13.2459 32.3586 14.9731 32.2666C14.1368 32.8762 9.54876 31.1685 8.47052 30.7246C8.56382 31.9737 8.92043 32.9799 9.29224 34.1556C9.33684 34.2966 9.32758 34.267 9.26839 34.3787C8.75052 33.4877 8.36648 31.4099 8.18311 30.3636Z" fill="#014B8E"/>
<path d="M2.55762 2.80002C2.79696 2.45031 2.90138 2.32237 3.19262 2.01343C2.99319 4.11632 3.47238 6.64309 4.10615 8.66273C4.21069 8.99599 4.80195 10.4583 4.82827 10.6502C4.40246 10.5509 3.55739 7.384 3.44223 6.85895C3.28678 6.14812 3.17211 5.42907 3.09871 4.70535C3.07103 4.4249 2.95723 2.83329 2.87975 2.74673L2.55762 2.80002Z" fill="#014B8E"/>
<path d="M53.2368 4.10327C55.0168 5.59529 56.4321 8.11272 56.8089 10.4449C56.8089 10.4727 56.8089 10.5007 56.8089 10.5286L56.7386 10.527C56.476 9.90091 56.3622 9.16503 56.1188 8.54175C55.7212 7.52382 55.1175 6.49657 54.4689 5.6158C54.1659 5.20433 53.3832 4.53709 53.2368 4.10327Z" fill="#014B8E"/>
<path d="M22.9395 34.7253C21.7392 33.6212 19.8137 32.1382 18.523 31.0577C15.8813 28.8828 13.3284 26.6037 10.8701 24.226C10.4976 23.8667 8.61828 21.9796 8.50695 21.5786C8.19519 20.4559 8.39326 19.18 7.90752 17.8357C7.35963 16.3195 6.46353 15.2361 6.39569 13.6452C6.28139 10.7476 7.32541 7.92262 9.29975 5.78719C10.0934 4.94153 11.1466 4.17778 12.1602 3.60718C11.5674 4.4446 11.0797 5.14303 10.6177 6.07452C9.06312 9.20835 8.60123 13.0179 9.20757 16.4507C10.0213 21.0584 12.8384 24.8268 16.6476 27.4593C17.99 28.3941 19.4296 29.1829 20.9414 29.8125C20.3364 27.3299 20.9469 24.8061 22.1943 22.6288C22.0122 26.3186 23.9007 30.5093 26.6442 32.9866C29.7471 32.3206 32.2828 32.3612 35.3809 32.9839C38.3157 29.7681 39.8166 27.2616 39.7764 22.7755C41.2073 25.1699 41.4073 27.0398 41.0974 29.7761C45.7792 27.8141 49.8994 24.399 51.8787 19.6262C53.482 15.7599 53.4308 10.9284 51.797 7.07144C51.2979 5.8934 50.5639 4.67557 49.8422 3.60718C50.4351 4.00624 51.2931 4.54922 51.8152 4.97432C53.6762 6.48205 54.9353 8.59969 55.3663 10.9469C55.5184 11.7524 55.6944 13.4582 55.5417 14.258C55.2962 15.5432 54.4272 16.6058 54.005 17.9626C53.6001 19.2638 53.862 20.9656 53.2037 21.8834C52.4749 22.8994 51.24 24.0638 50.3311 24.9362C48.3096 26.8852 46.211 28.7535 44.0399 30.5367L40.7382 33.2417C40.2242 33.6651 39.4095 34.3015 38.944 34.7514C39.5633 35.6931 40.0265 36.4888 40.5921 37.4587C41.642 35.841 42.2928 35.0011 44.3033 34.6187C46.7936 34.1452 48.7279 34.219 51.1451 33.2317C49.7116 37.1527 46.9173 39.7098 42.6705 40.0515C44.1735 38.8922 46.163 37.4157 47.4482 36.075C46.3138 36.4197 45.5249 36.712 44.4302 37.1612C42.3831 38.0012 41.0524 38.6548 39.8857 40.6031C39.8966 44.4042 39.6081 47.1419 38.1171 50.7233C37.7502 51.6045 37.4277 52.4319 36.8735 53.2239C36.8293 50.4559 36.0793 46.7035 34.3223 44.5509C34.1775 44.3735 33.9963 44.2247 34.0208 44.0168C34.8639 44.4817 35.9061 44.4409 36.7244 43.9415C37.8679 43.2436 38.2765 42.0234 38.5507 40.7977C38.6038 40.5142 39.3732 39.289 39.5611 38.7131C39.1842 38.0739 38.1365 36.9955 37.5668 36.5269C35.3675 34.7178 32.4438 34.0895 29.6431 34.3709C26.0884 34.7282 24.3673 36.1072 22.2014 38.6619C22.5418 39.5163 22.8458 40.0275 23.3663 40.7932C23.5247 41.554 23.6873 42.2038 24.0957 42.8775C24.9426 44.2751 26.5013 44.7312 27.965 43.9617L27.9957 44.1006C27.6625 44.4997 27.4608 44.6237 27.1489 45.0998C25.5451 47.5464 25.4045 50.4223 25.0238 53.1781C22.7639 49.0424 21.9615 45.3977 22.1134 40.7187C21.7361 40.1321 21.2592 39.4492 20.7322 38.9846C19.1088 37.5534 16.4881 36.7277 14.4559 36.0476C15.7778 37.3785 17.7205 38.8881 19.267 40.0163C14.8615 39.7565 12.2469 37.2244 10.7337 33.2361C11.7288 33.5591 12.7178 33.8541 13.7489 34.0464C15.3867 34.3519 16.9908 34.3949 18.5841 34.9356C20.0694 35.4397 20.4611 36.2248 21.2996 37.4102C21.8525 36.519 22.3991 35.624 22.9395 34.7253Z" fill="#203FAE"/>
<path d="M20.825 46.0746C20.9251 46.1833 20.9966 47.4648 21.0464 47.7598C21.3382 49.5317 21.8427 51.2625 22.5492 52.915C22.4756 53.2539 22.4305 53.6557 22.3942 54.003C22.0262 57.5175 21.5598 61.033 21.2389 64.551C22.3026 65.6242 23.4292 66.9535 24.4484 68.0855L30.9322 75.2865C34.1919 71.9033 37.4757 68.055 40.6975 64.5676L39.7567 56.452C39.6366 55.3824 39.4215 53.9336 39.4355 52.8758C39.4389 52.6329 39.9023 51.4778 40.0094 51.1656C40.2559 50.4288 40.4668 49.6809 40.6413 48.9242C40.7295 48.5406 41.0742 46.511 41.1516 46.3956C41.2546 46.7451 41.3121 47.9001 41.3483 48.341C41.5625 50.6662 41.8814 53.0864 42.1462 55.4115C42.4665 58.4716 42.8421 61.5256 43.2728 64.5722C39.2519 68.4251 34.997 72.1618 30.9475 75.9901C26.8918 72.1759 22.7936 68.4064 18.6538 64.6823C18.809 62.6704 19.222 59.9864 19.4642 57.9346C19.9285 54.0016 20.3233 49.9935 20.825 46.0746Z" fill="#203FAE"/>
<path d="M59.7937 7.50818C59.9287 7.84585 59.9995 8.66461 60.0283 9.03814C60.2238 11.4634 59.9211 13.9028 59.139 16.2082C56.9201 22.6407 51.2862 28.043 45.2255 30.9911L45.0688 31.0271C45.1147 30.8934 47.4516 28.9271 47.8221 28.5874C49.9752 26.613 52.1824 24.5795 54.1185 22.3952C55.0096 21.3897 54.5282 19.4182 55.0981 18.0954C56.0423 15.9033 57.2695 13.8796 58.3489 11.7546C59.064 10.3576 59.3559 8.98644 59.7937 7.50818Z" fill="#203FAE"/>
<path d="M2.27721 7.57324C2.41622 7.83515 2.53558 8.80973 2.65013 9.16619C2.85821 9.81391 3.11585 10.557 3.39437 11.1749C4.50535 13.6393 5.95898 15.7065 6.88709 18.2737C7.33922 19.1415 7.08652 21.502 7.63775 22.1479C9.81585 24.6993 12.4707 27.0263 14.9506 29.2872C15.401 29.6979 16.6397 30.6665 16.8581 30.9983L16.7569 31.0138C10.1454 27.8315 3.93497 21.5148 2.31464 14.223C1.89662 12.3423 1.79307 9.40711 2.27721 7.57324Z" fill="#203FAE"/>
<path d="M27.3573 56.9631L27.19 56.9593C26.572 56.4656 26.0696 55.033 26.172 54.2474C26.2583 53.586 26.9208 51.745 27.7865 52.0865C28.3748 52.3186 29.3116 53.4027 29.9682 53.7225C30.1096 53.7932 30.7248 54.1975 30.794 54.3202C29.2325 53.9283 27.2068 50.35 26.4777 53.7167C26.2575 54.7336 26.4151 55.5503 26.9792 56.4186C27.1007 56.6031 27.2268 56.7847 27.3573 56.9631Z" fill="#014B8E"/>
<path d="M28.0825 58.5056L28.1714 58.5488C28.3938 58.6595 28.6009 58.8114 28.8399 58.9339C29.9859 59.5221 31.2034 59.5168 32.4307 59.151C31.6316 59.888 28.4997 59.5332 28.0825 58.5056Z" fill="#014B8E"/>
</g>
<defs>
<clipPath id="clip0_210_10913">
<rect width="61.5819" height="78.8312" fill="white" transform="translate(0.208984 0.606812)"/>
</clipPath>
</defs>
</svg>
